# xmcd CD database file
#
# Track frame offsets:
#	150
#	14904
#	29153
#	46034
#	69822
#	93125
#	111216
#	128388
#	148825
#	174020
#
# Disc length: 2573 seconds
#
# Revision: 0
# Processed by: cddbd v1.5.2PL0 Copyright (c) Steve Scherf et al.
# Submitted via: jetAudio 7
#
DISCID=7b0a0b0a
DTITLE=음악가 없음 - 앨범 없음
DYEAR=1900
DGENRE=장르 없음
TTITLE0=Cay Truc Xinh
TTITLE1=Di Cay
TTITLE2=Di Dau Cho Thiep Theo Cung
TTITLE3=Lang Toi
TTITLE4=Long Me
TTITLE5=Ly Ngua O
TTITLE6=Ly Thuong Nhau
TTITLE7=Mua Hoa Anh Dao
TTITLE8=Que Ngheo
TTITLE9=Tieng Hat Chim Da Da
EXTD=
EXTT0=
EXTT1=
EXTT2=
EXTT3=
EXTT4=
EXTT5=
EXTT6=
EXTT7=
EXTT8=
EXTT9=
PLAYORDER=
